# xmcd CD database file
#
# Track frame offsets:
# 183
# 21355
# 40365
# 53978
# 70268
# 88383
# 113393
# 153435
# 165953
# 182653
#
# Disc length: 2807 seconds
#
# Revision: 0
# Processed by: cddbd v1.4b41PL1 Copyright (c) Steve Scherf et al.
# Submitted via: jack 2.2.0
#
DISCID=7c0af50a
DTITLE=Steve Miller - Live At Beacon Theatre, New York
DYEAR=1900
DGENRE=
TTITLE0=Baby´s Callin´ Me Home
TTITLE1=Wild Mountain Honey
TTITLE2=Going To The Country
TTITLE3=Nothing Lasts
TTITLE4=Going To Mexico
TTITLE5=The Joker
TTITLE6=Fly Like An Eagle
TTITLE7=Gangster Of Love
TTITLE8=Your Cash Ain´t Nothing But Trash
TTITLE9=Shu Ba Du Ma Ma Ma Ma
EXTD=
EXTT0=
EXTT1=
EXTT2=
EXTT3=
EXTT4=
EXTT5=
EXTT6=
EXTT7=
EXTT8=
EXTT9=
PLAYORDER=
